<svg id="visual" viewBox="0 0 900 675" width="900" height="675" xmlns="http://www.w3.org/2000/svg" xmlns:xlink="http://www.w3.org/1999/xlink" version="1.1"><path d="M0 224L21.5 207.3C43 190.7 86 157.3 128.8 148.3C171.7 139.3 214.3 154.7 257.2 165.3C300 176 343 182 385.8 172.2C428.7 162.3 471.3 136.7 514.2 129.5C557 122.3 600 133.7 642.8 153.3C685.7 173 728.3 201 771.2 212.2C814 223.3 857 217.7 878.5 214.8L900 212L900 0L878.5 0C857 0 814 0 771.2 0C728.3 0 685.7 0 642.8 0C600 0 557 0 514.2 0C471.3 0 428.7 0 385.8 0C343 0 300 0 257.2 0C214.3 0 171.7 0 128.8 0C86 0 43 0 21.5 0L0 0Z" fill="#333333" stroke-linecap="round" stroke-linejoin="miter"></path></svg>